<svg height="480pt" viewBox="-16 0 480 480" width="480pt" xmlns="http://www.w3.org/2000/svg"><path d="m120 176h192c4.417969 0 8-3.582031 8-8v-80c0-4.417969-3.582031-8-8-8h-192c-4.417969 0-8 3.582031-8 8v80c0 4.417969 3.582031 8 8 8zm8-80h176v64h-176zm0 0"/><path d="m152 208h128v16h-128zm0 0"/><path d="m120 256h192v16h-192zm0 0"/><path d="m440 128c2.78125.015625 5.367188-1.414062 6.835938-3.773438 1.46875-2.363281 1.605468-5.316406.363281-7.800781l-14.253907-28.425781 14.253907-28.425781c1.242187-2.484375 1.105469-5.4375-.363281-7.800781-1.46875-2.359376-4.054688-3.789063-6.835938-3.773438h-72v-40c0-4.417969-3.582031-8-8-8h-304c-30.914062.0351562-55.9648438 25.085938-56 56v368c.0351562 30.914062 25.085938 55.964844 56 56h304c4.417969 0 8-3.582031 8-8v-152h72c2.78125.015625 5.367188-1.414062 6.835938-3.773438 1.46875-2.363281 1.605468-5.316406.363281-7.800781l-14.253907-28.425781 14.253907-28.425781c1.242187-2.484375 1.105469-5.4375-.363281-7.800781-1.46875-2.359376-4.054688-3.789063-6.835938-3.773438h-72v-16h72c2.78125.015625 5.367188-1.414062 6.835938-3.773438 1.46875-2.363281 1.605468-5.316406.363281-7.800781l-14.253907-28.425781 14.253907-28.425781c1.242187-2.484375 1.105469-5.4375-.363281-7.800781-1.46875-2.359376-4.054688-3.789063-6.835938-3.773438h-72v-16zm-12.945312-64-10.214844 20.425781c-1.125 2.25-1.125 4.898438 0 7.148438l10.214844 20.425781h-59.054688v-48zm-75.054688 304h-272v-352h272zm-336 16.800781v-328.800781c.027344-22.082031 17.917969-39.972656 40-40h8v352h-8c-1.921875 0-3.839844.101562-5.753906.296875-.679688.070313-1.324219.207031-1.988282.304687-1.210937.167969-2.402343.308594-3.601562.558594-.800781.160156-1.542969.398438-2.320312.59375-1.023438.261719-2.0625.484375-3.070313.796875-.800781.257813-1.601563.601563-2.402344.898438-.800781.292969-1.839843.628906-2.726562 1.007812-.890625.375-1.601563.800781-2.449219 1.183594s-1.664062.800781-2.464844 1.207031c-.796875.410156-1.597656.953125-2.359375 1.441406-.757812.488282-1.535156.902344-2.269531 1.398438-.738281.496094-1.488281 1.113281-2.234375 1.671875-.742187.5625-1.421875 1.03125-2.09375 1.601563-.671875.566406-1.371094 1.230468-2.058594 1.863281-.6875.632812-1.3125 1.167969-1.933593 1.792969-.113282.085937-.203126.183593-.273438.222656zm40 79.199219c-22.074219-.039062-39.960938-17.925781-40-40 .027344-22.082031 17.917969-39.972656 40-40h296v32h-296v16h296v32zm371.054688-208-10.214844 20.425781c-1.125 2.25-1.125 4.898438 0 7.148438l10.214844 20.425781h-59.054688v-48zm0-96-10.214844 20.425781c-1.125 2.25-1.125 4.898438 0 7.148438l10.214844 20.425781h-59.054688v-48zm0 0"/></svg>