<svg height="512pt" viewBox="0 0 512 512" width="512pt" xmlns="http://www.w3.org/2000/svg"><path d="m486.398438 153.601562h-76.796876v-8.535156c0-14.136718-11.464843-25.601562-25.601562-25.601562h-8.535156v-8.53125c-.046875-.726563-.191406-1.445313-.425782-2.132813.234376-.691406.378907-1.40625.425782-2.132812 0-58.820313-53.585938-106.667969-119.464844-106.667969s-119.464844 47.847656-119.464844 106.667969c.046875.726562.191406 1.441406.425782 2.132812-.234376.6875-.378907 1.40625-.425782 2.132813v8.53125h-8.535156c-14.136719 0-25.601562 11.464844-25.601562 25.601562v8.535156h-76.796876c-14.140624 0-25.601562 11.460938-25.601562 25.597657v307.199219c0 14.140624 11.460938 25.601562 25.601562 25.601562h460.796876c14.140624 0 25.601562-11.460938 25.601562-25.601562v-307.199219c0-14.136719-11.460938-25.597657-25.601562-25.597657zm-102.398438-17.066406c4.710938 0 8.535156 3.820313 8.535156 8.53125v8.535156h-51.203125v-8.535156c0-4.710937 3.820313-8.53125 8.535157-8.53125zm-128-119.46875c39.34375-1.105468 75.917969 20.171875 94.402344 54.921875-21.679688-17.929687-55.558594-29.320312-94.402344-29.320312s-72.722656 11.390625-94.402344 29.320312c18.484375-34.75 55.058594-56.027343 94.402344-54.921875zm0 42.667969c55.507812 0 102.398438 27.355469 102.398438 59.730469h-8.53125c-14.140626 0-25.601563 11.464844-25.601563 25.601562v8.535156h-136.53125v-8.535156c0-14.136718-11.460937-25.601562-25.601563-25.601562h-8.53125c0-32.375 46.933594-59.730469 102.398438-59.730469zm-136.535156 85.332031c0-4.710937 3.824218-8.53125 8.535156-8.53125h34.132812c4.714844 0 8.535157 3.820313 8.535157 8.53125v8.535156h-51.203125zm-93.863282 25.601563h460.796876c4.714843 0 8.535156 3.820312 8.535156 8.53125v80.605469c-55.175782 31.738281-116.074219 52.277343-179.199219 60.441406v-30.113282c0-9.425781-7.640625-17.066406-17.066406-17.066406h-85.335938c-9.425781 0-17.066406 7.640625-17.066406 17.066406v30.113282c-63.125-8.164063-124.023437-28.703125-179.199219-60.441406v-80.605469c0-2.261719.898438-4.433594 2.5-6.03125 1.601563-1.601563 3.769532-2.5 6.035156-2.5zm204.796876 187.730469h51.203124v42.667968c0 4.714844-3.820312 8.535156-8.535156 8.535156h-34.132812c-4.714844 0-8.535156-3.820312-8.535156-8.535156zm59.734374-17.066407h-76.800781v-51.199219h85.335938v51.199219zm196.265626 153.601563h-460.796876c-4.714843 0-8.535156-3.820313-8.535156-8.535156v-206.796876c55.527344 30.46875 116.339844 50.101563 179.199219 57.859376v3.871093c0 9.425781 7.640625 17.066407 17.066406 17.066407v42.667968c0 14.140625 11.460938 25.601563 25.601563 25.601563h34.132812c14.140625 0 25.601563-11.460938 25.601563-25.601563v-42.667968c9.425781 0 17.066406-7.640626 17.066406-17.066407v-3.871093c62.859375-7.757813 123.671875-27.390626 179.199219-57.859376v206.796876c0 4.714843-3.820313 8.535156-8.535156 8.535156zm0 0"/><path d="m254.292969 307.371094c-.535157.09375-1.050781.265625-1.535157.511718-.546874.1875-1.066406.445313-1.546874.769532-.441407.316406-.867188.65625-1.269532 1.023437-1.5625 1.632813-2.449218 3.796875-2.476562 6.058594-.027344 1.117187.207031 2.230469.683594 3.242187.417968 1.015626 1.023437 1.945313 1.792968 2.730469 2.429688 2.449219 6.097656 3.195313 9.292969 1.886719 3.191406-1.304688 5.285156-4.410156 5.300781-7.859375-.035156-2.261719-.917968-4.425781-2.476562-6.058594-2.042969-2.011719-4.953125-2.878906-7.765625-2.304687zm0 0"/><path d="m42.667969 204.800781h8.53125c4.714843 0 8.535156-3.820312 8.535156-8.535156 0-4.710937-3.820313-8.53125-8.535156-8.53125h-8.53125c-4.714844 0-8.535157 3.820313-8.535157 8.53125 0 4.714844 3.820313 8.535156 8.535157 8.535156zm0 0"/><path d="m85.332031 204.800781h384c4.714844 0 8.535157-3.820312 8.535157-8.535156 0-4.710937-3.820313-8.53125-8.535157-8.53125h-384c-4.710937 0-8.53125 3.820313-8.53125 8.53125 0 4.714844 3.820313 8.535156 8.53125 8.535156zm0 0"/></svg>